<svg width="24" height="25" viewBox="0 0 24 25" fill="none" xmlns="http://www.w3.org/2000/svg">
<path d="M8 6.25C7.59 6.25 7.25 5.91 7.25 5.5V2.5C7.25 2.09 7.59 1.75 8 1.75C8.41 1.75 8.75 2.09 8.75 2.5V5.5C8.75 5.91 8.41 6.25 8 6.25Z" fill="white"/>
<path d="M16 6.25C15.59 6.25 15.25 5.91 15.25 5.5V2.5C15.25 2.09 15.59 1.75 16 1.75C16.41 1.75 16.75 2.09 16.75 2.5V5.5C16.75 5.91 16.41 6.25 16 6.25Z" fill="white"/>
<path d="M18.2 22.65C16.02 22.65 14.25 20.88 14.25 18.7C14.25 16.52 16.02 14.75 18.2 14.75C20.38 14.75 22.15 16.52 22.15 18.7C22.15 20.88 20.38 22.65 18.2 22.65ZM18.2 16.25C16.85 16.25 15.75 17.35 15.75 18.7C15.75 20.05 16.85 21.15 18.2 21.15C19.55 21.15 20.65 20.05 20.65 18.7C20.65 17.35 19.55 16.25 18.2 16.25Z" fill="white"/>
<path d="M21.9995 23.25C21.8095 23.25 21.6195 23.18 21.4695 23.03L20.4695 22.03C20.1795 21.74 20.1795 21.26 20.4695 20.97C20.7595 20.68 21.2395 20.68 21.5295 20.97L22.5295 21.97C22.8195 22.26 22.8195 22.74 22.5295 23.03C22.3795 23.18 22.1895 23.25 21.9995 23.25Z" fill="white"/>
<path d="M8.5 15C8.37 15 8.24 14.97 8.12 14.92C7.99 14.87 7.87999 14.8 7.78999 14.71C7.74999 14.66 7.7 14.61 7.67 14.56C7.63 14.5 7.6 14.44 7.58 14.38C7.55 14.32 7.53 14.26 7.52 14.2C7.51 14.13 7.5 14.06 7.5 14C7.5 13.74 7.60999 13.48 7.78999 13.29C7.87999 13.2 7.99 13.13 8.12 13.08C8.48 12.92 8.93001 13.01 9.21001 13.29C9.39001 13.48 9.5 13.74 9.5 14C9.5 14.06 9.49 14.13 9.48 14.2C9.47 14.26 9.45 14.32 9.42 14.38C9.4 14.44 9.37 14.5 9.33 14.56C9.29 14.61 9.25001 14.66 9.21001 14.71C9.02001 14.89 8.76 15 8.5 15Z" fill="white"/>
<path d="M12 15C11.74 15 11.48 14.89 11.29 14.71C11.11 14.52 11 14.27 11 14C11 13.87 11.03 13.74 11.08 13.62C11.13 13.5 11.2 13.39 11.29 13.29C11.66 12.92 12.33 12.92 12.71 13.29C12.89 13.48 13 13.74 13 14C13 14.06 12.99 14.13 12.98 14.2C12.97 14.26 12.95 14.32 12.92 14.38C12.9 14.44 12.87 14.5 12.83 14.56C12.79 14.61 12.75 14.66 12.71 14.71C12.52 14.89 12.26 15 12 15Z" fill="white"/>
<path d="M8.5 18.5C8.24 18.5 7.97999 18.39 7.78999 18.21C7.60999 18.02 7.5 17.76 7.5 17.5C7.5 17.37 7.53 17.24 7.58 17.12C7.63 16.99 7.69999 16.88 7.78999 16.79C8.15999 16.42 8.84001 16.42 9.21001 16.79C9.39001 16.98 9.5 17.24 9.5 17.5C9.5 17.76 9.39001 18.02 9.21001 18.21C9.02001 18.39 8.76 18.5 8.5 18.5Z" fill="white"/>
<path d="M20.5 10.34H3.5C3.09 10.34 2.75 9.99997 2.75 9.58997C2.75 9.17997 3.09 8.83997 3.5 8.83997H20.5C20.91 8.83997 21.25 9.17997 21.25 9.58997C21.25 9.99997 20.91 10.34 20.5 10.34Z" fill="white"/>
<path d="M13.37 23.25H8C4.35 23.25 2.25 21.15 2.25 17.5V9C2.25 5.35 4.35 3.25 8 3.25H16C19.65 3.25 21.75 5.35 21.75 9V13.5C21.75 13.91 21.41 14.25 21 14.25C20.59 14.25 20.25 13.91 20.25 13.5V9C20.25 6.14 18.86 4.75 16 4.75H8C5.14 4.75 3.75 6.14 3.75 9V17.5C3.75 20.36 5.14 21.75 8 21.75H13.37C13.78 21.75 14.12 22.09 14.12 22.5C14.12 22.91 13.78 23.25 13.37 23.25Z" fill="white"/>
</svg>
