<svg width="45" height="45" viewBox="0 0 45 45" fill="none" xmlns="http://www.w3.org/2000/svg">
<rect width="45" height="45" rx="8" fill="#FFEDED"/>
<path d="M20 12C17.38 12 15.25 14.13 15.25 16.75C15.25 19.32 17.26 21.4 19.88 21.49C19.96 21.48 20.04 21.48 20.1 21.49C20.12 21.49 20.13 21.49 20.15 21.49C20.16 21.49 20.16 21.49 20.17 21.49C22.73 21.4 24.74 19.32 24.75 16.75C24.75 14.13 22.62 12 20 12Z" fill="#FF0000"/>
<path d="M25.08 24.1499C22.29 22.2899 17.74 22.2899 14.93 24.1499C13.66 24.9999 12.96 26.1499 12.96 27.3799C12.96 28.6099 13.66 29.7499 14.92 30.5899C16.32 31.5299 18.16 31.9999 20 31.9999C21.84 31.9999 23.68 31.5299 25.08 30.5899C26.34 29.7399 27.04 28.5999 27.04 27.3599C27.03 26.1299 26.34 24.9899 25.08 24.1499Z" fill="#FF0000"/>
<path d="M30.9901 17.3401C31.1501 19.2801 29.7701 20.9801 27.8601 21.2101C27.8501 21.2101 27.8501 21.2101 27.8401 21.2101H27.8101C27.7501 21.2101 27.6901 21.2101 27.6401 21.2301C26.6701 21.2801 25.7801 20.9701 25.1101 20.4001C26.1401 19.4801 26.7301 18.1001 26.6101 16.6001C26.5401 15.7901 26.2601 15.0501 25.8401 14.4201C26.2201 14.2301 26.6601 14.1101 27.1101 14.0701C29.0701 13.9001 30.8201 15.3601 30.9901 17.3401Z" fill="#FF0000"/>
<path d="M32.99 26.5904C32.91 27.5604 32.29 28.4004 31.25 28.9704C30.25 29.5204 28.99 29.7804 27.74 29.7504C28.46 29.1004 28.88 28.2904 28.96 27.4304C29.06 26.1904 28.47 25.0004 27.29 24.0504C26.62 23.5204 25.84 23.1004 24.99 22.7904C27.2 22.1504 29.98 22.5804 31.69 23.9604C32.61 24.7004 33.08 25.6304 32.99 26.5904Z" fill="#FF0000"/>
</svg>
