<svg width="45" height="45" viewBox="0 0 45 45" fill="none" xmlns="http://www.w3.org/2000/svg">
<rect width="45" height="45" rx="8" fill="#FFEDED"/>
<path d="M20 12C17.38 12 15.25 14.13 15.25 16.75C15.25 19.32 17.26 21.4 19.88 21.49C19.96 21.48 20.04 21.48 20.1 21.49C20.12 21.49 20.13 21.49 20.15 21.49C20.16 21.49 20.16 21.49 20.17 21.49C22.73 21.4 24.74 19.32 24.75 16.75C24.75 14.13 22.62 12 20 12Z" fill="#FF0000"/>
<path d="M25.08 24.1499C22.29 22.2899 17.74 22.2899 14.93 24.1499C13.66 24.9999 12.96 26.1499 12.96 27.3799C12.96 28.6099 13.66 29.7499 14.92 30.5899C16.32 31.5299 18.16 31.9999 20 31.9999C21.84 31.9999 23.68 31.5299 25.08 30.5899C26.34 29.7399 27.04 28.5999 27.04 27.3599C27.03 26.1299 26.34 24.9899 25.08 24.1499Z" fill="#FF0000"/>
<path d="M30.9899 17.3401C31.1499 19.2801 29.7699 20.9801 27.8599 21.2101C27.8499 21.2101 27.8499 21.2101 27.8399 21.2101H27.8099C27.7499 21.2101 27.6899 21.2101 27.6399 21.2301C26.6699 21.2801 25.7799 20.9701 25.1099 20.4001C26.1399 19.4801 26.7299 18.1001 26.6099 16.6001C26.5399 15.7901 26.2599 15.0501 25.8399 14.4201C26.2199 14.2301 26.6599 14.1101 27.1099 14.0701C29.0699 13.9001 30.8199 15.3601 30.9899 17.3401Z" fill="#FF0000"/>
<path d="M32.9902 26.5904C32.9102 27.5604 32.2902 28.4004 31.2502 28.9704C30.2502 29.5204 28.9902 29.7804 27.7402 29.7504C28.4602 29.1004 28.8802 28.2904 28.9602 27.4304C29.0602 26.1904 28.4702 25.0004 27.2902 24.0504C26.6202 23.5204 25.8402 23.1004 24.9902 22.7904C27.2002 22.1504 29.9802 22.5804 31.6902 23.9604C32.6102 24.7004 33.0802 25.6304 32.9902 26.5904Z" fill="#FF0000"/>
</svg>
