<svg width="45" height="45" viewBox="0 0 45 45" fill="none" xmlns="http://www.w3.org/2000/svg">
<rect width="45" height="45" rx="8" fill="#FFEDED"/>
<path d="M26.19 12H17.81C14.17 12 12 14.17 12 17.81V26.18C12 29.83 14.17 32 17.81 32H26.18C29.82 32 31.99 29.83 31.99 26.19V17.81C32 14.17 29.83 12 26.19 12ZM17.75 19.14C17.75 18.33 18.41 17.66 19.23 17.66C20.04 17.66 20.71 18.32 20.71 19.14C20.71 19.95 20.05 20.62 19.23 20.62C18.41 20.61 17.75 19.95 17.75 19.14ZM18.82 26.02C18.63 26.02 18.44 25.95 18.29 25.8C18 25.51 18 25.04 18.29 24.74L24.84 18.19C25.13 17.9 25.61 17.9 25.9 18.19C26.19 18.48 26.19 18.96 25.9 19.25L19.35 25.8C19.2 25.95 19.01 26.02 18.82 26.02ZM25.77 26.34C24.96 26.34 24.29 25.68 24.29 24.86C24.29 24.05 24.95 23.38 25.77 23.38C26.58 23.38 27.25 24.04 27.25 24.86C27.25 25.68 26.59 26.34 25.77 26.34Z" fill="#FF0000"/>
</svg>
