<svg width="45" height="45" viewBox="0 0 45 45" fill="none" xmlns="http://www.w3.org/2000/svg">
<rect width="45" height="45" rx="8" fill="#FFEDED"/>
<path d="M30.0999 16.94C30.0999 17.48 29.8099 17.97 29.3499 18.22L27.6099 19.16L26.1299 19.95L23.0599 21.61C22.7299 21.79 22.3699 21.88 21.9999 21.88C21.6299 21.88 21.2699 21.79 20.9399 21.61L14.6499 18.22C14.1899 17.97 13.8999 17.48 13.8999 16.94C13.8999 16.4 14.1899 15.91 14.6499 15.66L16.6199 14.6L18.1899 13.75L20.9399 12.27C21.5999 11.91 22.3999 11.91 23.0599 12.27L29.3499 15.66C29.8099 15.91 30.0999 16.4 30.0999 16.94Z" fill="#FF0000"/>
<path d="M19.9002 22.7901L14.0502 19.8701C13.6002 19.6401 13.0802 19.6701 12.6502 19.9301C12.2202 20.1901 11.9702 20.6501 11.9702 21.1501V26.6801C11.9702 27.6401 12.5002 28.5001 13.3602 28.9301L19.2102 31.8501C19.4102 31.9501 19.6302 32.0001 19.8502 32.0001C20.1102 32.0001 20.3702 31.9301 20.6002 31.7801C21.0302 31.5201 21.2802 31.0601 21.2802 30.5601V25.0301C21.2902 24.0801 20.7602 23.2201 19.9002 22.7901Z" fill="#FF0000"/>
<path d="M32.03 21.1496V26.6796C32.03 27.6296 31.5 28.4896 30.64 28.9196L24.79 31.8496C24.59 31.9496 24.37 31.9996 24.15 31.9996C23.89 31.9996 23.63 31.9296 23.39 31.7796C22.97 31.5196 22.71 31.0596 22.71 30.5596V25.0396C22.71 24.0796 23.24 23.2196 24.1 22.7896L26.25 21.7196L27.75 20.9696L29.95 19.8696C30.4 19.6396 30.92 19.6596 31.35 19.9296C31.77 20.1896 32.03 20.6496 32.03 21.1496Z" fill="#FF0000"/>
<path d="M27.6101 19.16L26.1301 19.95L16.6201 14.6L18.1901 13.75L27.3701 18.93C27.4701 18.99 27.5501 19.07 27.6101 19.16Z" fill="#FF0000"/>
<path d="M27.75 20.9697V23.2397C27.75 23.6497 27.41 23.9897 27 23.9897C26.59 23.9897 26.25 23.6497 26.25 23.2397V21.7197L27.75 20.9697Z" fill="#FF0000"/>
</svg>
