<svg width="45" height="45" viewBox="0 0 45 45" fill="none" xmlns="http://www.w3.org/2000/svg">
<rect width="45" height="45" rx="8" fill="#FFEDED"/>
<path d="M28.6699 12H26.7699C24.5899 12 23.4399 13.15 23.4399 15.33V17.23C23.4399 19.41 24.5899 20.56 26.7699 20.56H28.6699C30.8499 20.56 31.9999 19.41 31.9999 17.23V15.33C31.9999 13.15 30.8499 12 28.6699 12Z" fill="#FF0000"/>
<path d="M17.24 23.4297H15.34C13.15 23.4297 12 24.5797 12 26.7597V28.6597C12 30.8497 13.15 31.9997 15.33 31.9997H17.23C19.41 31.9997 20.56 30.8497 20.56 28.6697V26.7697C20.57 24.5797 19.42 23.4297 17.24 23.4297Z" fill="#FF0000"/>
<path d="M16.29 20.58C18.6593 20.58 20.58 18.6593 20.58 16.29C20.58 13.9207 18.6593 12 16.29 12C13.9207 12 12 13.9207 12 16.29C12 18.6593 13.9207 20.58 16.29 20.58Z" fill="#FF0000"/>
<path d="M27.7099 31.9999C30.0792 31.9999 31.9999 30.0792 31.9999 27.7099C31.9999 25.3406 30.0792 23.4199 27.7099 23.4199C25.3406 23.4199 23.4199 25.3406 23.4199 27.7099C23.4199 30.0792 25.3406 31.9999 27.7099 31.9999Z" fill="#FF0000"/>
</svg>
