<svg width="45" height="45" viewBox="0 0 45 45" fill="none" xmlns="http://www.w3.org/2000/svg">
<rect width="45" height="45" rx="8" fill="#FFEDED"/>
<path d="M27.6 15.3103L21.95 12.2703C21.35 11.9503 20.64 11.9503 20.04 12.2703L14.4 15.3103C13.99 15.5403 13.73 15.9803 13.73 16.4603C13.73 16.9503 13.98 17.3903 14.4 17.6103L20.05 20.6503C20.35 20.8103 20.68 20.8903 21 20.8903C21.32 20.8903 21.66 20.8103 21.95 20.6503L27.6 17.6103C28.01 17.3903 28.27 16.9503 28.27 16.4603C28.27 15.9803 28.01 15.5403 27.6 15.3103Z" fill="#FF0000"/>
<path d="M19.12 21.7106L13.87 19.0906C13.46 18.8806 13 18.9106 12.61 19.1406C12.23 19.3806 12 19.7906 12 20.2406V25.2006C12 26.0606 12.48 26.8306 13.25 27.2206L18.5 29.8406C18.68 29.9306 18.88 29.9806 19.08 29.9806C19.31 29.9806 19.55 29.9106 19.76 29.7906C20.14 29.5506 20.37 29.1406 20.37 28.6906V23.7306C20.36 22.8706 19.88 22.1006 19.12 21.7106Z" fill="#FF0000"/>
<path d="M29.9999 20.2406V22.7006C29.5199 22.5606 29.0099 22.5006 28.4999 22.5006C27.1399 22.5006 25.8099 22.9706 24.7599 23.8106C23.3199 24.9406 22.4999 26.6506 22.4999 28.5006C22.4999 28.9906 22.5599 29.4806 22.6899 29.9506C22.5399 29.9306 22.3899 29.8706 22.2499 29.7806C21.8699 29.5506 21.6399 29.1406 21.6399 28.6906V23.7306C21.6399 22.8706 22.1199 22.1006 22.8799 21.7106L28.1299 19.0906C28.5399 18.8806 28.9999 18.9106 29.3899 19.1406C29.7699 19.3806 29.9999 19.7906 29.9999 20.2406Z" fill="#FF0000"/>
<path d="M31.98 25.6695C31.16 24.6595 29.91 24.0195 28.5 24.0195C27.44 24.0195 26.46 24.3895 25.69 25.0095C24.65 25.8295 24 27.0995 24 28.5195C24 29.3595 24.24 30.1595 24.65 30.8395C24.92 31.2895 25.26 31.6795 25.66 31.9995H25.67C26.44 32.6395 27.43 33.0195 28.5 33.0195C29.64 33.0195 30.67 32.5995 31.46 31.8995C31.81 31.5995 32.11 31.2395 32.35 30.8395C32.76 30.1595 33 29.3595 33 28.5195C33 27.4395 32.62 26.4395 31.98 25.6695ZM30.76 27.9595L28.36 30.1795C28.22 30.3095 28.03 30.3795 27.85 30.3795C27.66 30.3795 27.47 30.3095 27.32 30.1595L26.21 29.0495C25.92 28.7595 25.92 28.2795 26.21 27.9895C26.5 27.6995 26.98 27.6995 27.27 27.9895L27.87 28.5895L29.74 26.8595C30.04 26.5795 30.52 26.5995 30.8 26.8995C31.09 27.2095 31.07 27.6795 30.76 27.9595Z" fill="#FF0000"/>
</svg>
