<svg width="42" height="42" viewBox="0 0 42 42" fill="none" xmlns="http://www.w3.org/2000/svg">
<path d="M18.2876 5.33748L11.7426 13.4925C10.2551 15.3475 10.7801 17.7275 12.8976 18.7775L19.4251 22.05C20.2826 22.47 21.6826 22.47 22.5401 22.05L29.0676 18.7775C31.1851 17.71 31.7101 15.33 30.2226 13.4925L23.6951 5.33748C22.2251 3.46498 19.7751 3.46498 18.2876 5.33748Z" stroke="#292D32" stroke-width="1.5" stroke-miterlimit="10" stroke-linecap="round" stroke-linejoin="round"/>
<path d="M21 4.02496V13.23" stroke="#292D32" stroke-width="1.5" stroke-miterlimit="10" stroke-linecap="round" stroke-linejoin="round"/>
<path d="M13.6504 18.7425L21.0004 13.23L28.3504 18.7425" stroke="#292D32" stroke-width="1.5" stroke-miterlimit="10" stroke-linecap="round" stroke-linejoin="round"/>
<path d="M15.3472 25.2525L18.1647 26.5125C19.9672 27.3175 22.0322 27.3175 23.8522 26.5125L26.6697 25.2525C29.1897 24.1325 31.5172 27.1775 29.7672 29.3125L23.7122 36.715C22.2247 38.535 19.7922 38.535 18.2872 36.715L12.2497 29.3125C10.4822 27.1775 12.8097 24.1325 15.3472 25.2525Z" stroke="#292D32" stroke-width="1.5" stroke-miterlimit="10" stroke-linecap="round" stroke-linejoin="round"/>
</svg>
