<svg width="45" height="45" viewBox="0 0 45 45" fill="none" xmlns="http://www.w3.org/2000/svg">
<rect width="45" height="45" rx="8" fill="#FFEDED"/>
<path d="M27.25 32.5C28.2165 32.5 29 31.7165 29 30.75C29 29.7835 28.2165 29 27.25 29C26.2835 29 25.5 29.7835 25.5 30.75C25.5 31.7165 26.2835 32.5 27.25 32.5Z" fill="#FF0000"/>
<path d="M19.25 32.5C20.2165 32.5 21 31.7165 21 30.75C21 29.7835 20.2165 29 19.25 29C18.2835 29 17.5 29.7835 17.5 30.75C17.5 31.7165 18.2835 32.5 19.25 32.5Z" fill="#FF0000"/>
<path d="M15.84 13.94L15.64 16.39C15.6 16.86 15.97 17.25 16.44 17.25H31.75C32.17 17.25 32.52 16.93 32.55 16.51C32.68 14.74 31.33 13.3 29.56 13.3H17.27C17.17 12.86 16.97 12.44 16.66 12.09C16.16 11.56 15.46 11.25 14.74 11.25H13C12.59 11.25 12.25 11.59 12.25 12C12.25 12.41 12.59 12.75 13 12.75H14.74C15.05 12.75 15.34 12.88 15.55 13.1C15.76 13.33 15.86 13.63 15.84 13.94Z" fill="#FF0000"/>
<path d="M31.5101 18.75H16.1701C15.7501 18.75 15.4101 19.07 15.3701 19.48L15.0101 23.83C14.8701 25.54 16.2101 27 17.9201 27H29.0401C30.5401 27 31.8601 25.77 31.9701 24.27L32.3001 19.6C32.3401 19.14 31.9801 18.75 31.5101 18.75Z" fill="#FF0000"/>
</svg>
