<svg width="45" height="45" viewBox="0 0 45 45" fill="none" xmlns="http://www.w3.org/2000/svg">
<rect width="45" height="45" rx="8" fill="#FFEDED"/>
<path d="M31.0999 16.94C31.0999 17.48 30.8099 17.97 30.3499 18.22L28.6099 19.16L27.1299 19.95L24.0599 21.61C23.7299 21.79 23.3699 21.88 22.9999 21.88C22.6299 21.88 22.2699 21.79 21.9399 21.61L15.6499 18.22C15.1899 17.97 14.8999 17.48 14.8999 16.94C14.8999 16.4 15.1899 15.91 15.6499 15.66L17.6199 14.6L19.1899 13.75L21.9399 12.27C22.5999 11.91 23.3999 11.91 24.0599 12.27L30.3499 15.66C30.8099 15.91 31.0999 16.4 31.0999 16.94Z" fill="#FF0000"/>
<path d="M20.9 22.7901L15.05 19.8701C14.6 19.6401 14.08 19.6701 13.65 19.9301C13.22 20.1901 12.97 20.6501 12.97 21.1501V26.6801C12.97 27.6401 13.5 28.5001 14.36 28.9301L20.21 31.8501C20.41 31.9501 20.63 32.0001 20.85 32.0001C21.11 32.0001 21.37 31.9301 21.6 31.7801C22.03 31.5201 22.28 31.0601 22.28 30.5601V25.0301C22.29 24.0801 21.76 23.2201 20.9 22.7901Z" fill="#FF0000"/>
<path d="M33.03 21.1496V26.6796C33.03 27.6296 32.5 28.4896 31.64 28.9196L25.79 31.8496C25.59 31.9496 25.37 31.9996 25.15 31.9996C24.89 31.9996 24.63 31.9296 24.39 31.7796C23.97 31.5196 23.71 31.0596 23.71 30.5596V25.0396C23.71 24.0796 24.24 23.2196 25.1 22.7896L27.25 21.7196L28.75 20.9696L30.95 19.8696C31.4 19.6396 31.92 19.6596 32.35 19.9296C32.77 20.1896 33.03 20.6496 33.03 21.1496Z" fill="#FF0000"/>
<path d="M28.6101 19.16L27.1301 19.95L17.6201 14.6L19.1901 13.75L28.3701 18.93C28.4701 18.99 28.5501 19.07 28.6101 19.16Z" fill="#FF0000"/>
<path d="M28.75 20.9697V23.2397C28.75 23.6497 28.41 23.9897 28 23.9897C27.59 23.9897 27.25 23.6497 27.25 23.2397V21.7197L28.75 20.9697Z" fill="#FF0000"/>
</svg>
