<svg width="45" height="45" viewBox="0 0 45 45" fill="none" xmlns="http://www.w3.org/2000/svg">
<rect width="45" height="45" rx="8" fill="#FF0000" fill-opacity="0.07"/>
<path d="M22.9402 12.2098L20.5302 17.8198H18.1202C17.7202 17.8198 17.3302 17.8498 16.9502 17.9298L17.9502 15.5298L17.9902 15.4398L18.0502 15.2798C18.0802 15.2098 18.1002 15.1498 18.1302 15.0998C19.2902 12.4098 20.5902 11.5698 22.9402 12.2098Z" fill="#FF0000"/>
<path d="M29.7301 18.0895L29.7101 18.0795C29.1101 17.9095 28.5001 17.8195 27.8801 17.8195H21.6201L23.8701 12.5895L23.9001 12.5195C24.0401 12.5695 24.1901 12.6395 24.3401 12.6895L26.5501 13.6195C27.7801 14.1295 28.6401 14.6595 29.1701 15.2995C29.2601 15.4195 29.3401 15.5295 29.4201 15.6595C29.5101 15.7995 29.5801 15.9395 29.6201 16.0895C29.6601 16.1795 29.6901 16.2595 29.7101 16.3495C29.8601 16.8595 29.8701 17.4395 29.7301 18.0895Z" fill="#FF0000"/>
<path d="M23.52 27.6601H23.77C24.07 27.6601 24.32 27.3901 24.32 27.0601C24.32 26.6401 24.2 26.5801 23.94 26.4801L23.52 26.3301V27.6601Z" fill="#FF0000"/>
<path d="M29.2902 19.5203C28.8402 19.3903 28.3702 19.3203 27.8802 19.3203H18.1202C17.4402 19.3203 16.8002 19.4503 16.2002 19.7103C14.4602 20.4603 13.2402 22.1903 13.2402 24.2003V26.1503C13.2402 26.3903 13.2602 26.6203 13.2902 26.8603C13.5102 30.0403 15.2102 31.7403 18.3902 31.9503C18.6202 31.9803 18.8502 32.0003 19.1002 32.0003H26.9002C30.6002 32.0003 32.5502 30.2403 32.7402 26.7403C32.7502 26.5503 32.7602 26.3503 32.7602 26.1503V24.2003C32.7602 21.9903 31.2902 20.1303 29.2902 19.5203ZM24.2802 25.5003C24.7402 25.6603 25.3602 26.0003 25.3602 27.0603C25.3602 27.9703 24.6502 28.7003 23.7702 28.7003H23.5202V28.9203C23.5202 29.2103 23.2902 29.4403 23.0002 29.4403C22.7102 29.4403 22.4802 29.2103 22.4802 28.9203V28.7003H22.3902C21.4302 28.7003 20.6402 27.8903 20.6402 26.8903C20.6402 26.6003 20.8702 26.3703 21.1602 26.3703C21.4502 26.3703 21.6802 26.6003 21.6802 26.8903C21.6802 27.3103 22.0002 27.6603 22.3902 27.6603H22.4802V25.9703L21.7202 25.7003C21.2602 25.5403 20.6402 25.2003 20.6402 24.1403C20.6402 23.2303 21.3502 22.5003 22.2302 22.5003H22.4802V22.2803C22.4802 21.9903 22.7102 21.7603 23.0002 21.7603C23.2902 21.7603 23.5202 21.9903 23.5202 22.2803V22.5003H23.6102C24.5702 22.5003 25.3602 23.3103 25.3602 24.3103C25.3602 24.6003 25.1302 24.8303 24.8402 24.8303C24.5502 24.8303 24.3202 24.6003 24.3202 24.3103C24.3202 23.8903 24.0002 23.5403 23.6102 23.5403H23.5202V25.2303L24.2802 25.5003Z" fill="#FF0000"/>
<path d="M21.6802 24.14C21.6802 24.56 21.8002 24.62 22.0602 24.72L22.4802 24.87V23.54H22.2302C21.9202 23.54 21.6802 23.81 21.6802 24.14Z" fill="#FF0000"/>
</svg>
