<svg width="32" height="32" viewBox="0 0 32 32" fill="none" xmlns="http://www.w3.org/2000/svg">
<path d="M4.01318 14.96V20.9467C4.01318 26.9334 6.41318 29.3334 12.3999 29.3334H19.5865C25.5732 29.3334 27.9732 26.9334 27.9732 20.9467V14.96" stroke="#292D32" stroke-width="1.5" stroke-linecap="round" stroke-linejoin="round"/>
<path d="M16 16C18.44 16 20.24 14.0134 20 11.5734L19.12 2.66669H12.8933L12 11.5734C11.76 14.0134 13.56 16 16 16Z" stroke="#292D32" stroke-width="1.5" stroke-linecap="round" stroke-linejoin="round"/>
<path d="M24.4136 16C27.1069 16 29.0802 13.8134 28.8136 11.1334L28.4402 7.46669C27.9602 4.00002 26.6269 2.66669 23.1336 2.66669H19.0669L20.0002 12.0134C20.2269 14.2134 22.2136 16 24.4136 16Z" stroke="#292D32" stroke-width="1.5" stroke-linecap="round" stroke-linejoin="round"/>
<path d="M7.51984 16C9.71984 16 11.7065 14.2134 11.9198 12.0134L12.2132 9.06669L12.8532 2.66669H8.78651C5.29318 2.66669 3.95984 4.00002 3.47984 7.46669L3.11984 11.1334C2.85318 13.8134 4.82651 16 7.51984 16Z" stroke="#292D32" stroke-width="1.5" stroke-linecap="round" stroke-linejoin="round"/>
<path d="M15.9998 22.6667C13.7732 22.6667 12.6665 23.7734 12.6665 26V29.3334H19.3332V26C19.3332 23.7734 18.2265 22.6667 15.9998 22.6667Z" stroke="#292D32" stroke-width="1.5" stroke-linecap="round" stroke-linejoin="round"/>
</svg>
