<svg width="33" height="32" viewBox="0 0 33 32" fill="none" xmlns="http://www.w3.org/2000/svg">
<path d="M16.9508 17.04C16.8575 17.0266 16.7375 17.0266 16.6308 17.04C14.2841 16.96 12.4175 15.04 12.4175 12.68C12.4175 10.2666 14.3641 8.30664 16.7908 8.30664C19.2041 8.30664 21.1641 10.2666 21.1641 12.68C21.1508 15.04 19.2975 16.96 16.9508 17.04Z" stroke="#292D32" stroke-width="1.5" stroke-linecap="round" stroke-linejoin="round"/>
<path d="M25.7775 25.84C23.4042 28.0133 20.2575 29.3334 16.7909 29.3334C13.3242 29.3334 10.1775 28.0133 7.8042 25.84C7.93753 24.5867 8.73753 23.36 10.1642 22.4C13.8175 19.9734 19.7909 19.9734 23.4175 22.4C24.8442 23.36 25.6442 24.5867 25.7775 25.84Z" stroke="#292D32" stroke-width="1.5" stroke-linecap="round" stroke-linejoin="round"/>
<path d="M16.7909 29.3334C24.1546 29.3334 30.1242 23.3638 30.1242 16C30.1242 8.63622 24.1546 2.66669 16.7909 2.66669C9.42706 2.66669 3.45752 8.63622 3.45752 16C3.45752 23.3638 9.42706 29.3334 16.7909 29.3334Z" stroke="#292D32" stroke-width="1.5" stroke-linecap="round" stroke-linejoin="round"/>
</svg>
