<svg width="33" height="32" viewBox="0 0 33 32" fill="none" xmlns="http://www.w3.org/2000/svg">
<path d="M26.6291 10.56V17.4267C26.6291 21.5333 24.2825 23.2933 20.7625 23.2933H9.04244C8.44244 23.2933 7.86911 23.24 7.33577 23.12C7.00244 23.0667 6.68245 22.9734 6.38912 22.8667C4.38912 22.12 3.17578 20.3867 3.17578 17.4267V10.56C3.17578 6.45331 5.52244 4.69336 9.04244 4.69336H20.7625C23.7491 4.69336 25.8958 5.96002 26.4691 8.85335C26.5624 9.38669 26.6291 9.93331 26.6291 10.56Z" stroke="#292D32" stroke-width="1.5" stroke-miterlimit="10" stroke-linecap="round" stroke-linejoin="round"/>
<path d="M30.6307 14.5601V21.4268C30.6307 25.5335 28.2841 27.2935 24.7641 27.2935H13.0441C12.0574 27.2935 11.1641 27.1602 10.3907 26.8669C8.80408 26.2802 7.72407 25.0669 7.3374 23.1202C7.87074 23.2402 8.44407 23.2935 9.04407 23.2935H20.7641C24.2841 23.2935 26.6307 21.5335 26.6307 17.4268V10.5601C26.6307 9.93347 26.5774 9.37352 26.4707 8.85352C29.0041 9.38685 30.6307 11.1735 30.6307 14.5601Z" stroke="#292D32" stroke-width="1.5" stroke-miterlimit="10" stroke-linecap="round" stroke-linejoin="round"/>
<path d="M14.8936 17.5198C16.8376 17.5198 18.4136 15.9439 18.4136 13.9998C18.4136 12.0558 16.8376 10.4798 14.8936 10.4798C12.9495 10.4798 11.3735 12.0558 11.3735 13.9998C11.3735 15.9439 12.9495 17.5198 14.8936 17.5198Z" stroke="#292D32" stroke-width="1.5" stroke-miterlimit="10" stroke-linecap="round" stroke-linejoin="round"/>
<path d="M7.26904 11.0667V16.9333" stroke="#292D32" stroke-width="1.5" stroke-miterlimit="10" stroke-linecap="round" stroke-linejoin="round"/>
<path d="M22.5249 11.0671V16.9338" stroke="#292D32" stroke-width="1.5" stroke-miterlimit="10" stroke-linecap="round" stroke-linejoin="round"/>
</svg>
