<svg width="33" height="32" viewBox="0 0 33 32" fill="none" xmlns="http://www.w3.org/2000/svg">
<path d="M10.249 9.33335H22.9157V6.66669C22.9157 4.00002 21.9157 2.66669 18.9157 2.66669H14.249C11.249 2.66669 10.249 4.00002 10.249 6.66669V9.33335Z" stroke="#292D32" stroke-width="1.5" stroke-miterlimit="10" stroke-linecap="round" stroke-linejoin="round"/>
<path d="M21.9157 20V25.3333C21.9157 28 20.5824 29.3333 17.9157 29.3333H15.249C12.5824 29.3333 11.249 28 11.249 25.3333V20H21.9157Z" stroke="#292D32" stroke-width="1.5" stroke-miterlimit="10" stroke-linecap="round" stroke-linejoin="round"/>
<path d="M28.5825 13.3333V20C28.5825 22.6666 27.2492 24 24.5825 24H21.9159V20H11.2492V24H8.58252C5.91585 24 4.58252 22.6666 4.58252 20V13.3333C4.58252 10.6666 5.91585 9.33331 8.58252 9.33331H24.5825C27.2492 9.33331 28.5825 10.6666 28.5825 13.3333Z" stroke="#292D32" stroke-width="1.5" stroke-miterlimit="10" stroke-linecap="round" stroke-linejoin="round"/>
<path d="M23.2493 20H21.636H9.91602" stroke="#292D32" stroke-width="1.5" stroke-miterlimit="10" stroke-linecap="round" stroke-linejoin="round"/>
<path d="M9.91602 14.6667H13.916" stroke="#292D32" stroke-width="1.5" stroke-miterlimit="10" stroke-linecap="round" stroke-linejoin="round"/>
</svg>
