<svg width="18" height="18" viewBox="0 0 18 18" fill="none" xmlns="http://www.w3.org/2000/svg">
<path d="M15.4502 3.0752V4.7252C15.4502 5.3252 15.0752 6.0752 14.7002 6.4502L11.4752 9.30019C11.0252 9.67519 10.7252 10.4252 10.7252 11.0252V14.2502C10.7252 14.7002 10.4252 15.3002 10.0502 15.5252L9.00016 16.2002C8.02516 16.8002 6.67516 16.1252 6.67516 14.9252V10.9502C6.67516 10.4252 6.37516 9.7502 6.07516 9.3752L5.72266 9.0077C5.49016 8.7602 5.44516 8.3852 5.63266 8.0927L9.47266 1.9277C9.60766 1.7102 9.84766 1.5752 10.1102 1.5752H13.9502C14.7752 1.5752 15.4502 2.2502 15.4502 3.0752Z" fill="#FF0000"/>
<path d="M7.7623 2.7227L5.0998 6.9902C4.8448 7.4027 4.2598 7.4627 3.9223 7.1102L3.2248 6.3752C2.8498 6.0002 2.5498 5.3252 2.5498 4.8752V3.1502C2.5498 2.2502 3.2248 1.5752 4.0498 1.5752H7.1248C7.7098 1.5752 8.0698 2.2202 7.7623 2.7227Z" fill="#FF0000"/>
</svg>
