<svg width="26" height="24" viewBox="0 0 26 24" fill="none" xmlns="http://www.w3.org/2000/svg">
<path d="M23.4375 9.75C23.0019 9.75 22.6406 9.41 22.6406 9V7C22.6406 4.42 20.8662 2.75 18.125 2.75H7.5C4.75875 2.75 2.98438 4.42 2.98438 7V9C2.98438 9.41 2.62312 9.75 2.1875 9.75C1.75188 9.75 1.39062 9.41 1.39062 9V7C1.39062 3.56 3.845 1.25 7.5 1.25H18.125C21.78 1.25 24.2344 3.56 24.2344 7V9C24.2344 9.41 23.8731 9.75 23.4375 9.75Z" fill="#FF0000"/>
<path d="M18.125 22.75H7.5C3.845 22.75 1.39062 20.44 1.39062 17V15C1.39062 14.59 1.75188 14.25 2.1875 14.25C2.62312 14.25 2.98438 14.59 2.98438 15V17C2.98438 19.58 4.75875 21.25 7.5 21.25H18.125C20.8662 21.25 22.6406 19.58 22.6406 17V15C22.6406 14.59 23.0019 14.25 23.4375 14.25C23.8731 14.25 24.2344 14.59 24.2344 15V17C24.2344 20.44 21.78 22.75 18.125 22.75Z" fill="#FF0000"/>
<path d="M23.4375 12.75H2.1875C1.75188 12.75 1.39062 12.41 1.39062 12C1.39062 11.59 1.75188 11.25 2.1875 11.25H23.4375C23.8731 11.25 24.2344 11.59 24.2344 12C24.2344 12.41 23.8731 12.75 23.4375 12.75Z" fill="#FF0000"/>
</svg>
