<svg width="109" height="109" viewBox="0 0 109 109" fill="none" xmlns="http://www.w3.org/2000/svg">
<circle cx="54.2858" cy="54.2858" r="54.2858" fill="#00E28F" fill-opacity="0.1"/>
<path d="M81.7811 51.9864V54.5808C81.7776 60.662 79.8085 66.5792 76.1673 71.4498C72.5262 76.3204 67.4082 79.8835 61.5765 81.6078C55.7449 83.332 49.5121 83.125 43.8078 81.0175C38.1034 78.91 33.2331 75.0151 29.9233 69.9135C26.6134 64.812 25.0413 58.7772 25.4414 52.7092C25.8416 46.6412 28.1925 40.865 32.1436 36.2423C36.0946 31.6195 41.4342 28.3978 47.3659 27.0576C53.2976 25.7174 59.5035 26.3306 65.0583 28.8056M81.7811 32.0205L53.5807 60.2491L45.1206 51.789" stroke="#00C17A" stroke-width="4" stroke-linecap="round" stroke-linejoin="round"/>
</svg>
