<svg width="31" height="31" viewBox="0 0 31 31" fill="none" xmlns="http://www.w3.org/2000/svg">
<path d="M3.875 7.74992H6.45833M6.45833 7.74992H27.125M6.45833 7.74992V25.8333C6.45833 26.5184 6.7305 27.1755 7.21497 27.6599C7.69944 28.1444 8.35652 28.4166 9.04167 28.4166H21.9583C22.6435 28.4166 23.3006 28.1444 23.785 27.6599C24.2695 27.1755 24.5417 26.5184 24.5417 25.8333V7.74992M10.3333 7.74992V5.16659C10.3333 4.48144 10.6055 3.82436 11.09 3.33989C11.5744 2.85542 12.2315 2.58325 12.9167 2.58325H18.0833C18.7685 2.58325 19.4256 2.85542 19.91 3.33989C20.3945 3.82436 20.6667 4.48144 20.6667 5.16659V7.74992M12.9167 14.2083V21.9583M18.0833 14.2083V21.9583" stroke="#FF0000" stroke-width="2" stroke-linecap="round" stroke-linejoin="round"/>
</svg>
